<svg width="151" height="88" viewBox="0 0 151 88" fill="none" xmlns="http://www.w3.org/2000/svg">
<path d="M55.8703 29.8605C53.9372 28.9161 47.7994 25.6254 42.8307 22.5676C37.4224 19.2395 29.3793 15.0792 29.3793 15.0792L27.1605 14.1085C21.7675 11.4127 17.0886 11.0937 15.5438 11.0618C15.4204 11.0591 15.3164 11.0577 15.2345 11.0577C13.9684 11.0577 10.2381 11.4765 7.61439 12.6899C10.4059 11.2033 16.1442 8.08033 19.0314 6.2623C22.7757 3.90484 28.4613 0.854004 33.7309 0.854004C35.9788 0.854004 38.457 1.31302 40.5828 1.86494C42.6754 2.40854 44.7056 3.16848 46.6484 4.12117C50.8295 6.17217 57.7119 9.30343 61.3271 10.0758C65.0547 10.8705 68.0404 12.6164 69.3855 13.6356C69.5616 13.7687 69.7225 13.9227 69.8611 14.0932L69.8556 14.0974C73.0326 19.4655 61.9997 26.7639 55.8703 29.8605Z" fill="#0649E7"/>
<path d="M17.6975 37.1584C17.5713 37.1321 17.5061 37.1168 17.5061 37.1168C17.4215 37.0974 17.33 37.0766 17.2343 37.0544C15.6118 36.6814 12.525 35.9658 11.3199 35.547C9.37843 34.3239 7.01542 32.6931 4.80495 30.7863C3.33639 29.5202 2.11328 27.9879 1.26459 26.2434C0.547648 24.7679 0.108051 23.1939 0.241178 20.4759C0.407587 17.0922 5.02544 13.9804 7.31357 12.8488C7.40925 12.7975 7.51049 12.7448 7.61449 12.6893C10.2382 11.4759 13.9685 11.0571 15.2346 11.0571C15.3165 11.0571 15.4205 11.0585 15.5439 11.0613C15.1293 11.6271 13.6302 13.7862 13.1545 16.0494C12.5998 18.6842 12.1838 19.7936 12.3225 22.1511C12.4612 24.5085 12.4612 30.7489 17.3148 36.7119L17.6975 37.1584Z" fill="#0649E7"/>
<path d="M74.0157 39.1286C73.5082 40.9314 69.7168 45.2303 58.6229 48.0038C51.2731 49.8412 43.861 49.4668 38.4665 48.5751C35.1217 48.0218 31.8823 46.9582 28.8439 45.4536C25.9761 44.0322 22.6785 42.3542 21.6661 41.6941C19.8634 40.5154 16.6739 38.5739 15.2178 37.8112C14.6145 37.495 13.1543 36.7032 11.3196 35.5481C12.5247 35.9669 15.6116 36.6824 17.2341 37.0554C17.3298 37.0776 17.4213 37.0984 17.5059 37.1179C17.5059 37.1179 17.5711 37.1331 17.6973 37.1608C19.5652 37.5519 34.9414 40.3115 55.6414 29.9761C55.7162 29.9387 55.7925 29.8999 55.8702 29.861C61.9996 26.7644 73.0325 19.466 69.8555 14.0979L69.861 14.0938C69.9484 14.2005 70.0274 14.3129 70.0968 14.4321C70.3089 14.7941 70.5447 15.2642 70.6875 15.6927C70.9094 16.3583 72.9992 31.5931 74.0157 39.1286Z" fill="#0649E7"/>
<path d="M1.79441 76.061V58.3697H5.38323L11.0445 69.7932L16.6551 58.3697H20.2692V76.061H17.2364V63.576L12.2323 73.5842H9.85661L4.82721 63.6013V76.061H1.79441ZM27.9282 76.3643C26.7151 76.3643 25.6199 76.0863 24.6427 75.5303C23.6823 74.9574 22.9241 74.174 22.3681 73.1799C21.8289 72.1689 21.5594 71.0148 21.5594 69.7174C21.5594 68.3864 21.8374 67.2238 22.3934 66.2297C22.9494 65.2188 23.7076 64.4353 24.668 63.8793C25.6452 63.3064 26.7404 63.02 27.9535 63.02C29.1666 63.02 30.2534 63.3064 31.2138 63.8793C32.191 64.4353 32.9492 65.2103 33.4884 66.2044C34.0444 67.1985 34.3224 68.3611 34.3224 69.6921C34.3224 71.0232 34.0444 72.1858 33.4884 73.1799C32.9324 74.174 32.1658 74.9574 31.1885 75.5303C30.2281 76.0863 29.1414 76.3643 27.9282 76.3643ZM27.9282 73.7612C28.5348 73.7612 29.0824 73.6095 29.571 73.3062C30.0765 73.003 30.4809 72.548 30.7841 71.9415C31.0874 71.3349 31.2391 70.5851 31.2391 69.6921C31.2391 68.7992 31.0874 68.0578 30.7841 67.4681C30.4977 66.8615 30.1018 66.4066 29.5963 66.1033C29.1077 65.8 28.5601 65.6484 27.9535 65.6484C27.3638 65.6484 26.8162 65.8 26.3108 66.1033C25.8053 66.4066 25.4009 66.8615 25.0976 67.4681C24.7944 68.0578 24.6427 68.7992 24.6427 69.6921C24.6427 70.5851 24.7944 71.3349 25.0976 71.9415C25.4009 72.548 25.7969 73.003 26.2855 73.3062C26.7909 73.6095 27.3385 73.7612 27.9282 73.7612ZM42.8008 76.3643C42.1269 76.3643 41.5203 76.2716 40.9812 76.0863C40.442 75.9178 39.9702 75.6819 39.5658 75.3787C39.1615 75.0585 38.8245 74.6963 38.5549 74.2919L38.2264 76.061H35.5221V57.8642H38.5549V65.1935C38.9593 64.5701 39.5069 64.0562 40.1977 63.6518C40.8885 63.2306 41.7478 63.02 42.7756 63.02C43.9718 63.02 45.0249 63.3148 45.9347 63.9045C46.8614 64.4774 47.5859 65.2693 48.1082 66.2802C48.6474 67.2743 48.917 68.4201 48.917 69.7174C48.917 70.9811 48.6558 72.1184 48.1335 73.1293C47.6112 74.1403 46.8867 74.9322 45.96 75.505C45.0502 76.0779 43.9971 76.3643 42.8008 76.3643ZM42.169 73.7359C42.8767 73.7359 43.5085 73.5674 44.0645 73.2304C44.6205 72.8766 45.0502 72.4048 45.3534 71.8151C45.6736 71.2085 45.8336 70.5009 45.8336 69.6921C45.8336 68.9002 45.6736 68.201 45.3534 67.5945C45.0502 66.9879 44.6205 66.5161 44.0645 66.1792C43.5085 65.8422 42.8767 65.6737 42.169 65.6737C41.4445 65.6737 40.8042 65.8422 40.2482 66.1792C39.7091 66.5161 39.2794 66.9879 38.9593 67.5945C38.656 68.201 38.5044 68.9002 38.5044 69.6921C38.5044 70.5009 38.656 71.2085 38.9593 71.8151C39.2794 72.4048 39.7091 72.8766 40.2482 73.2304C40.8042 73.5674 41.4445 73.7359 42.169 73.7359ZM54.8179 76.3643C53.7901 76.3643 52.9056 76.1621 52.1642 75.7578C51.4397 75.3365 50.8837 74.7131 50.4962 73.8875C50.1087 73.0451 49.9149 72.0089 49.9149 70.7789V63.3233H52.9477V70.4756C52.9477 71.5708 53.1752 72.4048 53.6301 72.9777C54.1018 73.5337 54.8095 73.8117 55.753 73.8117C56.3596 73.8117 56.8988 73.6685 57.3705 73.3821C57.8591 73.0956 58.2382 72.6828 58.5078 72.1437C58.7943 71.5877 58.9375 70.9137 58.9375 70.1218V63.3233H61.9703V76.061H59.2913L59.0638 73.9381C58.6763 74.6794 58.1119 75.2691 57.3705 75.7072C56.646 76.1453 55.7952 76.3643 54.8179 76.3643ZM63.7019 76.061V63.3233H66.7347V76.061H63.7019ZM65.2183 61.3014C64.6623 61.3014 64.1989 61.1329 63.8283 60.7959C63.4744 60.4421 63.2975 60.0125 63.2975 59.507C63.2975 58.9847 63.4744 58.5634 63.8283 58.2433C64.1989 57.9063 64.6623 57.7378 65.2183 57.7378C65.7743 57.7378 66.2292 57.9063 66.5831 58.2433C66.9537 58.5634 67.1391 58.9847 67.1391 59.507C67.1391 60.0125 66.9537 60.4421 66.5831 60.7959C66.2292 61.1329 65.7743 61.3014 65.2183 61.3014ZM73.5502 76.3643C72.4213 76.3643 71.4357 76.1874 70.5932 75.8336C69.7676 75.4629 69.1105 74.9574 68.6219 74.3172C68.1501 73.6601 67.8721 72.9103 67.7879 72.0678H70.8207C70.9049 72.4217 71.0566 72.7502 71.2756 73.0535C71.4947 73.3399 71.7895 73.5674 72.1602 73.7359C72.5477 73.9044 73.0026 73.9886 73.525 73.9886C74.0304 73.9886 74.4432 73.9212 74.7633 73.7864C75.0835 73.6348 75.3194 73.441 75.471 73.2051C75.6226 72.9693 75.6985 72.7165 75.6985 72.4469C75.6985 72.0426 75.5889 71.7309 75.3699 71.5118C75.1509 71.2928 74.8307 71.1243 74.4095 71.0064C74.0051 70.8716 73.5165 70.7452 72.9437 70.6273C72.3371 70.5093 71.7474 70.3661 71.1745 70.1976C70.6185 70.0123 70.113 69.7848 69.6581 69.5152C69.2201 69.2457 68.8662 68.9002 68.5966 68.479C68.3439 68.0578 68.2175 67.5439 68.2175 66.9374C68.2175 66.196 68.4113 65.5305 68.7988 64.9408C69.2032 64.351 69.7761 63.8877 70.5174 63.5507C71.2756 63.1969 72.177 63.02 73.2217 63.02C74.7044 63.02 75.8838 63.3654 76.7599 64.0562C77.6529 64.7301 78.1752 65.6821 78.3269 66.9121H75.4457C75.3615 66.4403 75.1256 66.0781 74.7381 65.8253C74.3505 65.5557 73.8367 65.4209 73.1964 65.4209C72.5393 65.4209 72.0338 65.5473 71.68 65.8001C71.343 66.0359 71.1745 66.3561 71.1745 66.7604C71.1745 67.0132 71.2756 67.2491 71.4778 67.4681C71.6968 67.6703 72.0085 67.8472 72.4129 67.9988C72.8173 68.1336 73.3143 68.2684 73.9041 68.4032C74.8476 68.5885 75.6816 68.8076 76.4061 69.0603C77.1306 69.313 77.7035 69.6837 78.1247 70.1723C78.5459 70.661 78.7565 71.3518 78.7565 72.2448C78.7734 73.0535 78.5628 73.7696 78.1247 74.393C77.7035 75.0164 77.1053 75.505 76.3303 75.8588C75.5552 76.1958 74.6286 76.3643 73.5502 76.3643ZM80.0313 76.061V58.3697H91.4548V60.8212H83.0641V65.9011H90.6966V68.3021H83.0641V73.6095H91.4548V76.061H80.0313ZM92.7722 76.061V63.3233H95.4512L95.6786 65.4462C96.0661 64.7049 96.6222 64.1152 97.3467 63.6771C98.0712 63.239 98.9305 63.02 99.9245 63.02C100.952 63.02 101.828 63.239 102.553 63.6771C103.277 64.0983 103.833 64.7217 104.221 65.5473C104.625 66.3729 104.828 67.4007 104.828 68.6307V76.061H101.795V68.9087C101.795 67.8472 101.559 67.03 101.087 66.4572C100.615 65.8843 99.9161 65.5979 98.9894 65.5979C98.3829 65.5979 97.8353 65.7411 97.3467 66.0275C96.8749 66.3139 96.4958 66.7352 96.2094 67.2912C95.9398 67.8303 95.805 68.4875 95.805 69.2625V76.061H92.7722ZM111.614 81.9245C110.418 81.9245 109.365 81.7728 108.455 81.4695C107.562 81.1831 106.862 80.7366 106.357 80.13C105.868 79.5403 105.624 78.799 105.624 77.906C105.624 77.3837 105.75 76.8698 106.003 76.3643C106.273 75.8757 106.669 75.4208 107.191 74.9996C107.73 74.5615 108.413 74.1824 109.238 73.8623L110.578 75.3281C109.769 75.6145 109.204 75.9599 108.884 76.3643C108.564 76.7687 108.404 77.1815 108.404 77.6027C108.404 78.0408 108.539 78.403 108.809 78.6895C109.095 78.9927 109.474 79.2202 109.946 79.3718C110.434 79.5235 110.982 79.5993 111.589 79.5993C112.178 79.5993 112.692 79.5151 113.13 79.3466C113.568 79.1949 113.905 78.9759 114.141 78.6895C114.394 78.403 114.52 78.0576 114.52 77.6533C114.52 77.1478 114.343 76.735 113.99 76.4149C113.636 76.1116 112.937 75.9262 111.892 75.8588C110.999 75.7915 110.215 75.6988 109.541 75.5808C108.868 75.4461 108.286 75.2944 107.798 75.1259C107.326 74.9574 106.921 74.7721 106.584 74.5699C106.247 74.3509 105.969 74.1318 105.75 73.9128V73.3315L108.404 70.5514L110.653 71.2844L107.671 74.1908L108.455 72.725C108.623 72.8429 108.792 72.9524 108.96 73.0535C109.146 73.1546 109.373 73.2473 109.643 73.3315C109.929 73.3989 110.3 73.4663 110.755 73.5337C111.21 73.6011 111.799 73.6685 112.524 73.7359C113.653 73.8201 114.571 74.0223 115.279 74.3424C115.986 74.6626 116.508 75.0922 116.845 75.6314C117.182 76.1706 117.351 76.8192 117.351 77.5774C117.351 78.3188 117.14 79.018 116.719 79.6751C116.315 80.3322 115.691 80.8714 114.849 81.2926C114.006 81.7138 112.928 81.9245 111.614 81.9245ZM111.614 72.2448C110.552 72.2448 109.634 72.0426 108.859 71.6382C108.101 71.217 107.52 70.661 107.115 69.9702C106.711 69.2625 106.509 68.4875 106.509 67.645C106.509 66.7857 106.711 66.0107 107.115 65.3199C107.52 64.6291 108.101 64.073 108.859 63.6518C109.634 63.2306 110.552 63.02 111.614 63.02C112.675 63.02 113.585 63.2306 114.343 63.6518C115.102 64.073 115.683 64.6291 116.087 65.3199C116.492 66.0107 116.694 66.7857 116.694 67.645C116.694 68.4875 116.492 69.2625 116.087 69.9702C115.683 70.661 115.102 71.217 114.343 71.6382C113.585 72.0426 112.675 72.2448 111.614 72.2448ZM111.614 69.8943C112.338 69.8943 112.92 69.7006 113.358 69.313C113.796 68.9255 114.015 68.3695 114.015 67.645C114.015 66.9205 113.796 66.3729 113.358 66.0022C112.92 65.6147 112.338 65.4209 111.614 65.4209C110.889 65.4209 110.3 65.6147 109.845 66.0022C109.39 66.3729 109.162 66.9205 109.162 67.645C109.162 68.3695 109.39 68.9255 109.845 69.313C110.3 69.7006 110.889 69.8943 111.614 69.8943ZM113.712 65.5473L113.13 63.3233H118.362V65.2188L113.712 65.5473ZM119.397 76.061V63.3233H122.43V76.061H119.397ZM120.913 61.3014C120.357 61.3014 119.894 61.1329 119.523 60.7959C119.17 60.4421 118.993 60.0125 118.993 59.507C118.993 58.9847 119.17 58.5634 119.523 58.2433C119.894 57.9063 120.357 57.7378 120.913 57.7378C121.469 57.7378 121.924 57.9063 122.278 58.2433C122.649 58.5634 122.834 58.9847 122.834 59.507C122.834 60.0125 122.649 60.4421 122.278 60.7959C121.924 61.1329 121.469 61.3014 120.913 61.3014ZM124.165 76.061V63.3233H126.844L127.072 65.4462C127.459 64.7049 128.015 64.1152 128.74 63.6771C129.464 63.239 130.324 63.02 131.318 63.02C132.346 63.02 133.222 63.239 133.946 63.6771C134.671 64.0983 135.227 64.7217 135.614 65.5473C136.019 66.3729 136.221 67.4007 136.221 68.6307V76.061H133.188V68.9087C133.188 67.8472 132.952 67.03 132.48 66.4572C132.009 65.8843 131.309 65.5979 130.383 65.5979C129.776 65.5979 129.229 65.7411 128.74 66.0275C128.268 66.3139 127.889 66.7352 127.603 67.2912C127.333 67.8303 127.198 68.4875 127.198 69.2625V76.061H124.165ZM143.614 76.3643C142.35 76.3643 141.238 76.0947 140.278 75.5556C139.317 74.9996 138.567 74.2245 138.028 73.2304C137.489 72.2363 137.22 71.0906 137.22 69.7932C137.22 68.4453 137.481 67.2659 138.003 66.255C138.542 65.244 139.292 64.4521 140.252 63.8793C141.23 63.3064 142.358 63.02 143.639 63.02C144.886 63.02 145.973 63.298 146.899 63.854C147.826 64.41 148.542 65.1598 149.047 66.1033C149.553 67.03 149.806 68.0747 149.806 69.2372C149.806 69.4057 149.806 69.5911 149.806 69.7932C149.806 69.9954 149.789 70.206 149.755 70.4251H139.393V68.479H146.748C146.714 67.5523 146.402 66.8278 145.812 66.3055C145.223 65.7664 144.49 65.4968 143.614 65.4968C142.99 65.4968 142.417 65.64 141.895 65.9264C141.373 66.2128 140.96 66.6425 140.657 67.2154C140.353 67.7714 140.202 68.479 140.202 69.3383V70.0712C140.202 70.8631 140.345 71.5455 140.631 72.1184C140.935 72.6913 141.339 73.1293 141.845 73.4326C142.367 73.719 142.948 73.8623 143.588 73.8623C144.296 73.8623 144.877 73.7106 145.332 73.4073C145.804 73.1041 146.149 72.6997 146.368 72.1942H149.452C149.216 72.9861 148.828 73.7022 148.289 74.3424C147.75 74.9659 147.085 75.4629 146.293 75.8336C145.501 76.1874 144.608 76.3643 143.614 76.3643Z" fill="#0649E7"/>
</svg>
