<svg width="251" height="50" viewBox="0 0 251 50" fill="none" xmlns="http://www.w3.org/2000/svg">
<path d="M57.3352 29.8833C55.3437 28.9104 49.0204 25.5202 43.9015 22.37C38.3297 18.9412 30.0435 14.6552 30.0435 14.6552L27.7576 13.6552C22.2015 10.8778 17.3812 10.5492 15.7897 10.5164C15.6625 10.5135 15.5554 10.5121 15.4711 10.5121C14.1667 10.5121 10.3236 10.9436 7.62061 12.1936C10.4965 10.6621 16.4083 7.44476 19.3828 5.57179C23.2402 3.14306 29.0977 0 34.5266 0C36.8425 0 39.3955 0.472887 41.5856 1.0415C43.7415 1.60153 45.8331 2.38444 47.8346 3.36593C52.142 5.47892 59.2325 8.70484 62.957 9.50061C66.7973 10.3192 69.8732 12.1179 71.259 13.168C71.4404 13.3051 71.6061 13.4637 71.749 13.6394L71.7433 13.6437C75.0164 19.1741 63.6499 26.6931 57.3352 29.8833Z" fill="#FEFEFE"/>
<path d="M18.0084 37.4019C17.8784 37.3748 17.8113 37.3591 17.8113 37.3591C17.7241 37.3391 17.6298 37.3176 17.5312 37.2948C15.8597 36.9105 12.6795 36.1733 11.438 35.7418C9.43787 34.4817 7.00343 32.8016 4.72614 30.8372C3.21319 29.5328 1.95311 27.9542 1.07876 26.1569C0.340145 24.6368 -0.112741 23.0153 0.0244108 20.2151C0.19585 16.7292 4.9533 13.5232 7.31059 12.3575C7.40917 12.3046 7.51346 12.2503 7.62061 12.1932C10.3236 10.9431 14.1667 10.5116 15.4711 10.5116C15.5554 10.5116 15.6626 10.513 15.7897 10.5159C15.3625 11.0988 13.8182 13.3232 13.3281 15.6548C12.7567 18.3693 12.3281 19.5122 12.4709 21.9409C12.6138 24.3697 12.6138 30.7986 17.6141 36.9419L18.0084 37.4019Z" fill="#FEFEFE"/>
<path d="M76.029 39.431C75.5061 41.2882 71.6002 45.7171 60.1709 48.5744C52.599 50.4674 44.9628 50.0816 39.4053 49.163C35.9593 48.593 32.622 47.4972 29.4918 45.9471C26.5373 44.4827 23.1399 42.754 22.097 42.074C20.2397 40.8596 16.9538 38.8595 15.4537 38.0737C14.8322 37.748 13.3279 36.9322 11.4377 35.7422C12.6793 36.1736 15.8595 36.9108 17.531 37.2951C17.6296 37.318 17.7239 37.3394 17.811 37.3594C17.811 37.3594 17.8782 37.3751 18.0082 37.4037C19.9326 37.8066 35.7736 40.6496 57.0993 30.0018C57.1764 29.9632 57.255 29.9232 57.335 29.8832C63.6497 26.693 75.0161 19.174 71.7431 13.6436L71.7488 13.6393C71.8388 13.7493 71.9202 13.865 71.9916 13.9879C72.2102 14.3608 72.4531 14.8451 72.6003 15.2866C72.8288 15.9723 74.9818 31.6676 76.029 39.431Z" fill="#FEFEFE"/>
<path d="M96.6245 35.6637V17.4376H100.322L106.154 29.2065L111.934 17.4376H115.658V35.6637H112.533V22.8013L107.378 33.1121H104.93L99.749 22.8273V35.6637H96.6245ZM123.548 35.9762C122.299 35.9762 121.17 35.6898 120.164 35.1169C119.174 34.5268 118.393 33.7196 117.82 32.6955C117.265 31.654 116.987 30.4649 116.987 29.1283C116.987 27.757 117.273 26.5593 117.846 25.5352C118.419 24.4937 119.2 23.6865 120.19 23.1137C121.196 22.5235 122.325 22.2284 123.574 22.2284C124.824 22.2284 125.944 22.5235 126.933 23.1137C127.94 23.6865 128.721 24.485 129.277 25.5092C129.849 26.5333 130.136 27.731 130.136 29.1023C130.136 30.4736 129.849 31.6713 129.277 32.6955C128.704 33.7196 127.914 34.5268 126.907 35.1169C125.918 35.6898 124.798 35.9762 123.548 35.9762ZM123.548 33.2943C124.173 33.2943 124.737 33.1381 125.241 32.8256C125.762 32.5132 126.178 32.0445 126.491 31.4196C126.803 30.7947 126.959 30.0223 126.959 29.1023C126.959 28.1823 126.803 27.4186 126.491 26.811C126.195 26.1861 125.788 25.7175 125.267 25.405C124.763 25.0926 124.199 24.9363 123.574 24.9363C122.967 24.9363 122.403 25.0926 121.882 25.405C121.361 25.7175 120.945 26.1861 120.632 26.811C120.32 27.4186 120.164 28.1823 120.164 29.1023C120.164 30.0223 120.32 30.7947 120.632 31.4196C120.945 32.0445 121.353 32.5132 121.856 32.8256C122.377 33.1381 122.941 33.2943 123.548 33.2943ZM138.871 35.9762C138.176 35.9762 137.551 35.8807 136.996 35.6898C136.44 35.5162 135.954 35.2732 135.538 34.9607C135.121 34.6309 134.774 34.2577 134.496 33.8411L134.158 35.6637H131.372V16.9168H134.496V24.4677C134.913 23.8254 135.477 23.296 136.189 22.8794C136.9 22.4454 137.786 22.2284 138.844 22.2284C140.077 22.2284 141.162 22.5322 142.099 23.1398C143.054 23.7299 143.8 24.5458 144.338 25.5873C144.894 26.6114 145.172 27.7918 145.172 29.1283C145.172 30.4302 144.903 31.6019 144.364 32.6434C143.826 33.6849 143.08 34.5007 142.125 35.0909C141.188 35.6811 140.103 35.9762 138.871 35.9762ZM138.22 33.2683C138.949 33.2683 139.6 33.0947 140.172 32.7475C140.745 32.383 141.188 31.897 141.5 31.2894C141.83 30.6645 141.995 29.9355 141.995 29.1023C141.995 28.2865 141.83 27.5661 141.5 26.9412C141.188 26.3163 140.745 25.8303 140.172 25.4831C139.6 25.136 138.949 24.9624 138.22 24.9624C137.473 24.9624 136.814 25.136 136.241 25.4831C135.685 25.8303 135.243 26.3163 134.913 26.9412C134.6 27.5661 134.444 28.2865 134.444 29.1023C134.444 29.9355 134.6 30.6645 134.913 31.2894C135.243 31.897 135.685 32.383 136.241 32.7475C136.814 33.0947 137.473 33.2683 138.22 33.2683ZM151.251 35.9762C150.192 35.9762 149.281 35.7679 148.517 35.3513C147.771 34.9173 147.198 34.2751 146.798 33.4245C146.399 32.5566 146.2 31.4891 146.2 30.2219V22.5409H149.324V29.9095C149.324 31.0378 149.558 31.897 150.027 32.4872C150.513 33.06 151.242 33.3464 152.214 33.3464C152.839 33.3464 153.395 33.1989 153.881 32.9038C154.384 32.6087 154.775 32.1834 155.052 31.6279C155.347 31.0551 155.495 30.3608 155.495 29.5449V22.5409H158.619V35.6637H155.859L155.625 33.4766C155.226 34.2403 154.644 34.8479 153.881 35.2992C153.134 35.7505 152.258 35.9762 151.251 35.9762ZM160.403 35.6637V22.5409H163.528V35.6637H160.403ZM161.966 20.4579C161.393 20.4579 160.915 20.2843 160.534 19.9372C160.169 19.5726 159.987 19.13 159.987 18.6093C159.987 18.0712 160.169 17.6372 160.534 17.3074C160.915 16.9602 161.393 16.7866 161.966 16.7866C162.538 16.7866 163.007 16.9602 163.372 17.3074C163.754 17.6372 163.944 18.0712 163.944 18.6093C163.944 19.13 163.754 19.5726 163.372 19.9372C163.007 20.2843 162.538 20.4579 161.966 20.4579ZM170.549 35.9762C169.386 35.9762 168.371 35.7939 167.503 35.4294C166.653 35.0475 165.976 34.5268 165.472 33.8671C164.986 33.1902 164.7 32.4177 164.613 31.5498H167.737C167.824 31.9143 167.98 32.2528 168.206 32.5653C168.432 32.8604 168.735 33.0947 169.117 33.2683C169.517 33.4419 169.985 33.5287 170.523 33.5287C171.044 33.5287 171.469 33.4592 171.799 33.3204C172.129 33.1641 172.372 32.9645 172.528 32.7215C172.684 32.4785 172.763 32.2181 172.763 31.9404C172.763 31.5238 172.65 31.2027 172.424 30.977C172.198 30.7513 171.869 30.5778 171.435 30.4563C171.018 30.3174 170.515 30.1872 169.925 30.0657C169.3 29.9442 168.692 29.7966 168.102 29.6231C167.529 29.4321 167.008 29.1978 166.54 28.92C166.088 28.6423 165.724 28.2865 165.446 27.8525C165.186 27.4186 165.056 26.8891 165.056 26.2642C165.056 25.5005 165.255 24.8148 165.654 24.2073C166.071 23.5997 166.661 23.1224 167.425 22.7752C168.206 22.4107 169.135 22.2284 170.211 22.2284C171.738 22.2284 172.954 22.5843 173.856 23.296C174.776 23.9903 175.314 24.971 175.47 26.2382H172.502C172.415 25.7522 172.172 25.379 171.773 25.1186C171.374 24.8409 170.845 24.702 170.185 24.702C169.508 24.702 168.987 24.8322 168.623 25.0926C168.276 25.3356 168.102 25.6654 168.102 26.082C168.102 26.3423 168.206 26.5854 168.414 26.811C168.64 27.0193 168.961 27.2016 169.378 27.3578C169.794 27.4967 170.306 27.6355 170.914 27.7744C171.886 27.9653 172.745 28.191 173.492 28.4514C174.238 28.7117 174.828 29.0936 175.262 29.597C175.696 30.1004 175.913 30.8121 175.913 31.7321C175.93 32.5653 175.714 33.303 175.262 33.9453C174.828 34.5875 174.212 35.0909 173.414 35.4554C172.615 35.8026 171.66 35.9762 170.549 35.9762ZM177.226 35.6637V17.4376H188.995V19.9632H180.351V25.1967H188.214V27.6703H180.351V33.1381H188.995V35.6637H177.226ZM190.352 35.6637V22.5409H193.112L193.347 24.728C193.746 23.9643 194.319 23.3567 195.065 22.9054C195.812 22.4541 196.697 22.2284 197.721 22.2284C198.78 22.2284 199.683 22.4541 200.429 22.9054C201.175 23.3394 201.748 23.9816 202.147 24.8322C202.564 25.6827 202.772 26.7416 202.772 28.0087V35.6637H199.648V28.2952C199.648 27.2016 199.405 26.3597 198.919 25.7695C198.433 25.1793 197.712 24.8843 196.758 24.8843C196.133 24.8843 195.569 25.0318 195.065 25.3269C194.579 25.622 194.189 26.0559 193.894 26.6288C193.616 27.1842 193.477 27.8612 193.477 28.6597V35.6637H190.352ZM209.764 41.7044C208.531 41.7044 207.446 41.5482 206.509 41.2357C205.589 40.9406 204.869 40.4806 204.348 39.8557C203.845 39.2482 203.593 38.4844 203.593 37.5644C203.593 37.0263 203.723 36.4969 203.983 35.9762C204.261 35.4728 204.669 35.0041 205.207 34.5702C205.763 34.1188 206.466 33.7283 207.316 33.3985L208.696 34.9086C207.863 35.2037 207.281 35.5596 206.952 35.9762C206.622 36.3928 206.457 36.818 206.457 37.252C206.457 37.7033 206.596 38.0765 206.874 38.3716C207.169 38.6841 207.559 38.9184 208.045 39.0746C208.549 39.2308 209.113 39.3089 209.738 39.3089C210.345 39.3089 210.875 39.2222 211.326 39.0486C211.777 38.8924 212.124 38.6667 212.367 38.3716C212.628 38.0765 212.758 37.7207 212.758 37.3041C212.758 36.7833 212.576 36.358 212.211 36.0282C211.847 35.7158 211.126 35.5249 210.05 35.4554C209.13 35.386 208.323 35.2905 207.629 35.169C206.934 35.0301 206.335 34.8739 205.832 34.7003C205.346 34.5268 204.929 34.3358 204.582 34.1275C204.235 33.9019 203.949 33.6762 203.723 33.4505V32.8517L206.457 29.9876L208.774 30.7427L205.702 33.737L206.509 32.2268C206.683 32.3483 206.856 32.4611 207.03 32.5653C207.221 32.6694 207.455 32.7649 207.733 32.8517C208.028 32.9211 208.41 32.9906 208.878 33.06C209.347 33.1294 209.955 33.1989 210.701 33.2683C211.864 33.3551 212.81 33.5634 213.539 33.8932C214.268 34.223 214.806 34.6656 215.153 35.2211C215.501 35.7765 215.674 36.4448 215.674 37.226C215.674 37.9897 215.457 38.7101 215.023 39.3871C214.607 40.064 213.964 40.6195 213.096 41.0534C212.229 41.4874 211.118 41.7044 209.764 41.7044ZM209.764 31.7321C208.67 31.7321 207.724 31.5238 206.926 31.1072C206.145 30.6732 205.546 30.1004 205.129 29.3887C204.712 28.6597 204.504 27.8612 204.504 26.9933C204.504 26.108 204.712 25.3095 205.129 24.5978C205.546 23.8862 206.145 23.3133 206.926 22.8794C207.724 22.4454 208.67 22.2284 209.764 22.2284C210.857 22.2284 211.795 22.4454 212.576 22.8794C213.357 23.3133 213.956 23.8862 214.372 24.5978C214.789 25.3095 214.997 26.108 214.997 26.9933C214.997 27.8612 214.789 28.6597 214.372 29.3887C213.956 30.1004 213.357 30.6732 212.576 31.1072C211.795 31.5238 210.857 31.7321 209.764 31.7321ZM209.764 29.3106C210.51 29.3106 211.109 29.111 211.56 28.7117C212.012 28.3125 212.237 27.7397 212.237 26.9933C212.237 26.2469 212.012 25.6827 211.56 25.3009C211.109 24.9016 210.51 24.702 209.764 24.702C209.017 24.702 208.41 24.9016 207.941 25.3009C207.472 25.6827 207.238 26.2469 207.238 26.9933C207.238 27.7397 207.472 28.3125 207.941 28.7117C208.41 29.111 209.017 29.3106 209.764 29.3106ZM211.925 24.8322L211.326 22.5409H216.716V24.4937L211.925 24.8322ZM217.782 35.6637V22.5409H220.907V35.6637H217.782ZM219.344 20.4579C218.772 20.4579 218.294 20.2843 217.912 19.9372C217.548 19.5726 217.366 19.13 217.366 18.6093C217.366 18.0712 217.548 17.6372 217.912 17.3074C218.294 16.9602 218.772 16.7866 219.344 16.7866C219.917 16.7866 220.386 16.9602 220.75 17.3074C221.132 17.6372 221.323 18.0712 221.323 18.6093C221.323 19.13 221.132 19.5726 220.75 19.9372C220.386 20.2843 219.917 20.4579 219.344 20.4579ZM222.695 35.6637V22.5409H225.455L225.689 24.728C226.088 23.9643 226.661 23.3567 227.407 22.9054C228.154 22.4541 229.039 22.2284 230.063 22.2284C231.122 22.2284 232.025 22.4541 232.771 22.9054C233.518 23.3394 234.09 23.9816 234.49 24.8322C234.906 25.6827 235.115 26.7416 235.115 28.0087V35.6637H231.99V28.2952C231.99 27.2016 231.747 26.3597 231.261 25.7695C230.775 25.1793 230.055 24.8843 229.1 24.8843C228.475 24.8843 227.911 25.0318 227.407 25.3269C226.921 25.622 226.531 26.0559 226.236 26.6288C225.958 27.1842 225.819 27.8612 225.819 28.6597V35.6637H222.695ZM242.731 35.9762C241.429 35.9762 240.283 35.6984 239.294 35.143C238.305 34.5702 237.532 33.7717 236.977 32.7475C236.421 31.7234 236.143 30.543 236.143 29.2065C236.143 27.8178 236.412 26.6027 236.951 25.5612C237.506 24.5197 238.278 23.7039 239.268 23.1137C240.275 22.5235 241.438 22.2284 242.757 22.2284C244.041 22.2284 245.161 22.5149 246.116 23.0877C247.07 23.6605 247.808 24.4329 248.329 25.405C248.85 26.3597 249.11 27.4359 249.11 28.6336C249.11 28.8072 249.11 28.9982 249.11 29.2065C249.11 29.4148 249.093 29.6317 249.058 29.8574H238.383V27.8525H245.959C245.925 26.8978 245.604 26.1514 244.996 25.6133C244.389 25.0578 243.633 24.7801 242.731 24.7801C242.089 24.7801 241.498 24.9277 240.96 25.2227C240.422 25.5178 239.997 25.9605 239.684 26.5506C239.372 27.1235 239.216 27.8525 239.216 28.7378V29.4929C239.216 30.3087 239.363 31.0117 239.658 31.6019C239.971 32.1921 240.387 32.6434 240.908 32.9558C241.446 33.2509 242.045 33.3985 242.705 33.3985C243.434 33.3985 244.033 33.2422 244.501 32.9298C244.987 32.6173 245.343 32.2008 245.569 31.68H248.745C248.502 32.4958 248.103 33.2336 247.548 33.8932C246.992 34.5354 246.307 35.0475 245.491 35.4294C244.675 35.7939 243.755 35.9762 242.731 35.9762Z" fill="#FEFEFE"/>
</svg>
